<svg width="41" height="39" viewBox="0 0 41 39" fill="none" xmlns="http://www.w3.org/2000/svg">
<g clip-path="url(#clip0_3_5)">
<path d="M18.6132 14.3994C17.313 13.6264 15.785 13.5464 14.4658 14.1031C17.1953 14.1031 19.0276 15.6628 19.9482 17.9556C20.4976 19.319 19.6184 20.8555 18.4352 20.8555C19.6158 20.8555 20.4987 22.3893 19.9482 23.7555C19.0048 26.1051 16.9934 27.6291 14.8041 27.6291C14.7684 27.6291 8.75204 26.9729 8.75204 26.9729L4.4979 29.513C3.89674 29.8705 3.22851 29.5419 2.96713 28.9203L0.11917 22.1467C-0.147779 21.4905 0.0479962 20.7073 0.564148 20.3475L4.28438 17.8286L6.91876 12.1769C7.32812 7.81644 9.14371 3.81575 12.0273 1.00051C12.757 0.280838 13.8429 0.407817 14.4303 1.27572C15.0354 2.14362 14.9287 3.41363 14.1989 4.13338C13.3979 4.93768 12.6859 5.84794 12.1163 6.84282C13.5046 5.72088 15.1066 4.95893 16.8688 4.7049C17.8121 4.55675 18.6666 5.33987 18.7734 6.4618C18.898 7.58366 18.2394 8.59972 17.296 8.7267C16.2636 8.87485 15.3024 9.29822 14.4658 9.89091C16.1388 9.45574 18.2271 9.65188 20.1084 10.7376C20.9627 11.2455 21.3187 12.4521 20.8915 13.4682C20.4822 14.463 19.4498 14.8863 18.6132 14.3994V14.3994ZM16.8688 19.6913C16.4773 18.7387 15.694 18.146 14.804 18.146C14.5045 18.145 14.2078 18.2143 13.931 18.3501C13.6541 18.4859 13.4026 18.6855 13.1909 18.9373C12.9791 19.1891 12.8113 19.4882 12.6972 19.8174C12.583 20.1466 12.5247 20.4994 12.5256 20.8555C12.5256 22.4877 13.6665 23.5649 14.804 23.5649C15.694 23.5649 16.4773 22.9722 16.8688 22.0197C17.1536 21.2999 17.741 20.8766 18.364 20.8555C17.741 20.8344 17.1536 20.411 16.8688 19.6913ZM40.8808 16.8548C41.1478 17.5111 40.9519 18.2943 40.4358 18.6541L36.7156 21.173L34.0812 26.8247C33.6719 31.1851 31.8563 35.1858 28.9727 38.0011C28.2724 38.6951 27.1918 38.6214 26.5697 37.7259C25.9646 36.858 26.0713 35.5879 26.8012 34.8682C27.6022 34.0639 28.3142 33.1536 28.8837 32.1588C27.4954 33.2807 25.8934 34.0426 24.1312 34.2967C23.4892 34.4876 22.3661 33.8668 22.2266 32.5398C22.102 31.4179 22.7606 30.4019 23.704 30.2749C24.7365 30.1267 25.6976 29.7034 26.5342 29.1107C24.8612 29.5458 22.7729 29.3497 20.8916 28.264C20.0373 27.756 19.6813 26.5495 20.1085 25.5334C20.5178 24.5385 21.5502 24.1152 22.3869 24.6021C23.687 25.3751 25.2151 25.4551 26.5342 24.8984C23.8048 24.8984 21.9725 23.3387 21.0519 21.0459C20.5025 19.6825 21.3817 18.146 22.5649 18.146C21.3843 18.146 20.5013 16.6122 21.0519 15.246C21.9509 13.0069 23.8731 11.3699 26.3028 11.3724L32.248 12.0286L36.5022 9.48849C37.1049 9.13018 37.7724 9.46153 38.0329 10.0812L40.8808 16.8548V16.8548ZM26.1959 15.4367C25.3059 15.4367 24.5227 16.0294 24.1311 16.9819C23.8463 17.7016 23.259 18.1249 22.636 18.1461C23.259 18.1673 23.8463 18.5907 24.1311 19.3103C24.5227 20.2629 25.3059 20.8555 26.1959 20.8555C26.4954 20.8566 26.7921 20.7872 27.0689 20.6514C27.3458 20.5157 27.5973 20.3161 27.8091 20.0643C28.0208 19.8125 28.1886 19.5134 28.3028 19.1842C28.4169 18.855 28.4752 18.5022 28.4743 18.1461C28.4743 16.5138 27.3335 15.4367 26.1959 15.4367V15.4367Z" fill="black"/>
</g>
<defs>
<clipPath id="clip0_3_5">
<rect width="41" height="39" fill="white"/>
</clipPath>
</defs>
</svg>
