<svg width="20" height="35" viewBox="0 0 20 35" fill="none" xmlns="http://www.w3.org/2000/svg">
<path d="M14.5277 15.9551L7.02769 13.7949C6.15963 13.5488 5.55547 12.749 5.55547 11.8604C5.55547 10.7461 6.47213 9.84375 7.60408 9.84375H12.2082C13.0555 9.84375 13.8888 10.0967 14.5832 10.5615C15.0069 10.8418 15.5763 10.7734 15.9374 10.4248L18.3541 8.10059C18.8471 7.62891 18.7777 6.84277 18.2291 6.42578C16.5277 5.11328 14.4027 4.38184 12.2221 4.375V1.09375C12.2221 0.492187 11.7221 0 11.111 0H8.8888C8.27769 0 7.77769 0.492187 7.77769 1.09375V4.375H7.60408C3.18047 4.375 -0.375089 8.11426 0.0346337 12.5508C0.3263 15.7021 2.77074 18.2656 5.85408 19.1543L12.9721 21.2051C13.8402 21.458 14.4444 22.251 14.4444 23.1396C14.4444 24.2539 13.5277 25.1562 12.3957 25.1562H7.79158C6.94435 25.1562 6.11102 24.9033 5.41658 24.4385C4.99297 24.1582 4.42352 24.2266 4.06241 24.5752L1.64574 26.8994C1.15269 27.3711 1.22213 28.1572 1.77074 28.5742C3.47213 29.8867 5.59713 30.6182 7.77769 30.625V33.9062C7.77769 34.5078 8.27769 35 8.8888 35H11.111C11.7221 35 12.2221 34.5078 12.2221 33.9062V30.6113C15.4582 30.5498 18.493 28.6563 19.5624 25.6416C21.0555 21.4307 18.5485 17.1104 14.5277 15.9551V15.9551Z" fill="black"/>
</svg>
