<svg width="27" height="31" viewBox="0 0 27 31" fill="none" xmlns="http://www.w3.org/2000/svg">
<g clip-path="url(#clip0_3_2)">
<path d="M19.2496 19.4113L13.5 25.1875L7.75045 19.4113C3.4413 19.599 0 23.141 0 27.5125V28.0937C0 29.6982 1.29576 31 2.89286 31H24.1071C25.7042 31 27 29.6982 27 28.0937V27.5125C27 23.141 23.5587 19.599 19.2496 19.4113V19.4113ZM0.819643 4.83159L1.20536 4.92241V8.45835C0.783482 8.71265 0.482143 9.15464 0.482143 9.68745C0.482143 10.196 0.759375 10.6199 1.15112 10.8802L0.210938 14.6523C0.108482 15.0701 0.3375 15.5 0.668973 15.5H3.18817C3.51964 15.5 3.74866 15.0701 3.64621 14.6523L2.70603 10.8802C3.09777 10.6199 3.375 10.196 3.375 9.68745C3.375 9.15464 3.07366 8.71265 2.65179 8.45835V5.27358L6.62946 6.23628C6.11116 7.27769 5.78571 8.44019 5.78571 9.68745C5.78571 13.9681 9.23906 17.4375 13.5 17.4375C17.7609 17.4375 21.2143 13.9681 21.2143 9.68745C21.2143 8.44019 20.8949 7.27769 20.3705 6.23628L26.1743 4.83159C27.2712 4.56519 27.2712 3.19077 26.1743 2.92436L14.6993 0.139207C13.9158 -0.0484879 13.0902 -0.0484879 12.3067 0.139207L0.819643 2.91831C-0.271205 3.18472 -0.271205 4.56519 0.819643 4.83159V4.83159Z" fill="black"/>
</g>
<defs>
<clipPath id="clip0_3_2">
<rect width="27" height="31" fill="white"/>
</clipPath>
</defs>
</svg>
